<?xml version="1.0" standalone="no"?>
<!DOCTYPE svg PUBLIC "-//W3C//DTD SVG 20010904//EN"
 "http://www.w3.org/TR/2001/REC-SVG-20010904/DTD/svg10.dtd">
<svg version="1.0" xmlns="http://www.w3.org/2000/svg"
 width="320.000000pt" height="320.000000pt" viewBox="0 0 320.000000 320.000000"
 preserveAspectRatio="xMidYMid meet">
<metadata>
Created by potrace 1.14, written by Peter Selinger 2001-2017
</metadata>
<g transform="translate(0.000000,320.000000) scale(0.100000,-0.100000)"
fill="#000000" stroke="none">
<path d="M1658 2984 c-2 -1 -32 -5 -67 -8 -35 -3 -80 -10 -100 -16 -20 -5 -47
-11 -61 -13 -54 -10 -212 -68 -289 -106 -77 -39 -208 -124 -266 -172 -75 -62
-200 -200 -255 -280 -62 -91 -143 -243 -155 -291 -7 -28 -6 -28 39 -28 48 0
173 -27 192 -41 6 -5 21 15 39 54 16 34 57 103 91 152 439 633 1349 653 1825
39 85 -110 179 -308 195 -413 3 -20 7 -38 9 -41 19 -31 26 -309 11 -410 -23
-156 -111 -366 -207 -493 -60 -80 -159 -179 -244 -243 -112 -84 -326 -177
-460 -198 -95 -15 -128 -18 -203 -18 -356 2 -665 154 -892 439 l-57 71 -44
-25 c-24 -13 -79 -35 -121 -47 l-78 -22 57 -85 c78 -115 246 -280 362 -358
123 -81 209 -124 334 -166 159 -53 245 -67 417 -71 192 -4 314 14 475 68 81
28 218 92 280 130 131 83 307 241 375 338 14 19 28 37 31 40 16 14 93 147 128
221 94 201 132 372 133 589 0 228 -40 409 -135 610 -175 373 -533 664 -927
757 -87 20 -97 22 -155 29 -50 6 -273 13 -277 8z"/>
<path d="M1199 2247 c-63 -18 -103 -53 -130 -112 -19 -42 -23 -71 -25 -180 -1
-71 -3 -132 -3 -135 -1 -3 -31 -5 -68 -5 l-68 0 -3 -42 -3 -43 73 0 73 0 -1
-300 0 -301 50 3 51 3 0 297 -1 297 80 3 81 3 0 40 0 40 -50 2 c-27 1 -64 2
-82 2 l-32 1 4 123 c4 148 11 175 56 205 28 20 44 23 87 20 50 -4 53 -3 58 21
3 14 8 34 11 44 2 9 3 17 1 17 -69 8 -122 7 -159 -3z"/>
<path d="M394 1825 c-142 -32 -243 -151 -262 -308 -20 -160 59 -307 198 -374
47 -23 68 -27 150 -27 88 -1 101 2 160 31 36 17 80 48 99 67 34 35 34 36 15
57 -37 41 -52 43 -80 10 -37 -45 -123 -83 -186 -83 -108 -1 -208 69 -242 170
-29 84 -50 78 260 78 152 -1 281 2 286 5 6 4 8 34 5 77 -16 214 -193 344 -403
297z m167 -90 c71 -25 132 -109 133 -185 l1 -25 -230 0 -230 1 3 28 c8 73 88
165 160 184 56 15 115 14 163 -3z"/>
<path d="M1692 1828 c-172 -25 -297 -178 -294 -358 3 -218 162 -365 381 -356
138 6 233 61 298 171 38 64 50 116 48 196 -2 83 -18 136 -58 195 -79 118 -219
175 -375 152z m160 -93 c54 -19 109 -69 140 -127 28 -54 34 -176 12 -242 -35
-101 -126 -166 -238 -167 -153 -2 -259 106 -260 266 0 92 16 142 61 194 69 82
181 111 285 76z"/>
<path d="M2618 1829 c-57 -9 -105 -37 -147 -84 -17 -19 -32 -35 -35 -35 -2 0
-3 17 -1 38 3 57 -5 68 -50 68 -22 -1 -42 -4 -45 -7 -3 -4 -4 -158 -2 -343 l3
-336 49 0 50 0 0 68 c2 222 9 372 19 405 28 90 114 145 209 134 45 -5 42 -9
57 65 5 30 -32 39 -107 27z"/>
</g>
</svg>
